<?xml version="1.0" encoding="UTF-8" standalone="no"?>
<!DOCTYPE svg PUBLIC "-//W3C//DTD SVG 1.1//EN"
 "http://www.w3.org/Graphics/SVG/1.1/DTD/svg11.dtd">
<!-- Generated by graphviz version 2.38.0 (20140413.2041)
 -->
<!-- Title: mrpactivities Pages: 1 -->
<svg width="840pt" height="1265pt"
 viewBox="0.00 0.00 839.50 1264.50" xmlns="http://www.w3.org/2000/svg" xmlns:xlink="http://www.w3.org/1999/xlink">
<g id="graph0" class="graph" transform="scale(1 1) rotate(0) translate(4 1260.5)">
<title>mrpactivities</title>
<polygon fill="white" stroke="none" points="-4,4 -4,-1260.5 835.5,-1260.5 835.5,4 -4,4"/>
<g id="clust1" class="cluster"><title>cluster_verlag</title>
<polygon fill="none" stroke="black" points="8,-743 8,-1066.5 202,-1066.5 202,-743 8,-743"/>
<text text-anchor="middle" x="105" y="-1046.5" font-family="Times New Roman,serif" font-size="20.00">Retro digitization</text>
</g>
<g id="clust2" class="cluster"><title>cluster_serie3</title>
<polygon fill="none" stroke="black" points="210,-323 210,-1066.5 538,-1066.5 538,-323 210,-323"/>
<text text-anchor="middle" x="374" y="-1046.5" font-family="Times New Roman,serif" font-size="20.00">«Born digital» editing workflow</text>
</g>
<g id="clust6" class="cluster"><title>cluster_metadata</title>
<polygon fill="none" stroke="black" points="546,-743 546,-982.5 780,-982.5 780,-743 546,-743"/>
<text text-anchor="middle" x="663" y="-962.5" font-family="Times New Roman,serif" font-size="20.00">Auxiliary entity data</text>
</g>
<!-- start -->
<g id="node1" class="node"><title>start</title>
<ellipse fill="black" stroke="black" cx="450" cy="-1238.5" rx="18" ry="18"/>
<text text-anchor="middle" x="450" y="-1234.8" font-family="Times New Roman,serif" font-size="14.00">.</text>
</g>
<!-- selectwf -->
<g id="node3" class="node"><title>selectwf</title>
<polygon fill="none" stroke="black" points="382,-1184.5 293.521,-1166.5 382,-1148.5 470.479,-1166.5 382,-1184.5"/>
<text text-anchor="middle" x="382" y="-1162.8" font-family="Times New Roman,serif" font-size="14.00">select process</text>
</g>
<!-- start&#45;&gt;selectwf -->
<g id="edge1" class="edge"><title>start&#45;&gt;selectwf</title>
<path fill="none" stroke="black" d="M450,-1220.33C450,-1220.33 450,-1180.71 450,-1180.71"/>
<polygon fill="black" stroke="black" points="453.5,-1180.71 450,-1170.71 446.5,-1180.71 453.5,-1180.71"/>
</g>
<!-- datamodel -->
<g id="node4" class="node"><title>datamodel</title>
<path fill="none" stroke="black" d="M576.5,-1112.5C576.5,-1112.5 505.5,-1112.5 505.5,-1112.5 499.5,-1112.5 493.5,-1106.5 493.5,-1100.5 493.5,-1100.5 493.5,-1086.5 493.5,-1086.5 493.5,-1080.5 499.5,-1074.5 505.5,-1074.5 505.5,-1074.5 576.5,-1074.5 576.5,-1074.5 582.5,-1074.5 588.5,-1080.5 588.5,-1086.5 588.5,-1086.5 588.5,-1100.5 588.5,-1100.5 588.5,-1106.5 582.5,-1112.5 576.5,-1112.5"/>
<text text-anchor="middle" x="541" y="-1097.3" font-family="Times New Roman,serif" font-size="14.00">do</text>
<text text-anchor="middle" x="541" y="-1082.3" font-family="Times New Roman,serif" font-size="14.00">data modeling</text>
</g>
<!-- start&#45;&gt;datamodel -->
<g id="edge2" class="edge"><title>start&#45;&gt;datamodel</title>
<path fill="none" stroke="black" d="M468.415,-1238C495.006,-1238 541,-1238 541,-1238 541,-1238 541,-1122.69 541,-1122.69"/>
<polygon fill="black" stroke="black" points="544.5,-1122.69 541,-1112.69 537.5,-1122.69 544.5,-1122.69"/>
</g>
<!-- end -->
<g id="node2" class="node"><title>end</title>
<ellipse fill="black" stroke="black" cx="679" cy="-22" rx="18" ry="18"/>
<ellipse fill="none" stroke="black" cx="679" cy="-22" rx="22" ry="22"/>
<text text-anchor="middle" x="679" y="-18.3" font-family="Times New Roman,serif" font-size="14.00">.</text>
</g>
<!-- nobook -->
<g id="node5" class="node"><title>nobook</title>
<polygon fill="none" stroke="black" points="434.5,-1112.5 329.5,-1112.5 329.5,-1074.5 434.5,-1074.5 434.5,-1112.5"/>
<text text-anchor="middle" x="382" y="-1097.3" font-family="Times New Roman,serif" font-size="14.00">no book edition</text>
<text text-anchor="middle" x="382" y="-1082.3" font-family="Times New Roman,serif" font-size="14.00">available</text>
</g>
<!-- selectwf&#45;&gt;nobook -->
<g id="edge3" class="edge"><title>selectwf:s&#45;&gt;nobook</title>
<path fill="none" stroke="black" d="M382,-1148.5C382,-1148.5 382,-1122.74 382,-1122.74"/>
<polygon fill="black" stroke="black" points="385.5,-1122.74 382,-1112.74 378.5,-1122.74 385.5,-1122.74"/>
</g>
<!-- book -->
<g id="node6" class="node"><title>book</title>
<polygon fill="none" stroke="black" points="230.5,-1112.5 143.5,-1112.5 143.5,-1074.5 230.5,-1074.5 230.5,-1112.5"/>
<text text-anchor="middle" x="187" y="-1097.3" font-family="Times New Roman,serif" font-size="14.00">book edition</text>
<text text-anchor="middle" x="187" y="-1082.3" font-family="Times New Roman,serif" font-size="14.00">available</text>
</g>
<!-- selectwf&#45;&gt;book -->
<g id="edge5" class="edge"><title>selectwf:w&#45;&gt;book</title>
<path fill="none" stroke="black" d="M311.63,-1166.5C311.63,-1166.5 311.63,-1093 311.63,-1093 311.63,-1093 240.59,-1093 240.59,-1093"/>
<polygon fill="black" stroke="black" points="240.59,-1089.5 230.59,-1093 240.59,-1096.5 240.59,-1089.5"/>
</g>
<!-- collectNE -->
<g id="node25" class="node"><title>collectNE</title>
<path fill="none" stroke="black" d="M656,-944.5C656,-944.5 566,-944.5 566,-944.5 560,-944.5 554,-938.5 554,-932.5 554,-932.5 554,-918.5 554,-918.5 554,-912.5 560,-906.5 566,-906.5 566,-906.5 656,-906.5 656,-906.5 662,-906.5 668,-912.5 668,-918.5 668,-918.5 668,-932.5 668,-932.5 668,-938.5 662,-944.5 656,-944.5"/>
<text text-anchor="middle" x="611" y="-929.3" font-family="Times New Roman,serif" font-size="14.00">collect</text>
<text text-anchor="middle" x="611" y="-914.3" font-family="Times New Roman,serif" font-size="14.00">named entity data</text>
</g>
<!-- datamodel&#45;&gt;collectNE -->
<g id="edge32" class="edge"><title>datamodel&#45;&gt;collectNE</title>
<path fill="none" stroke="black" d="M571.25,-1074.23C571.25,-1074.23 571.25,-954.547 571.25,-954.547"/>
<polygon fill="black" stroke="black" points="574.75,-954.547 571.25,-944.547 567.75,-954.547 574.75,-954.547"/>
</g>
<!-- sources -->
<g id="node7" class="node"><title>sources</title>
<path fill="none" stroke="black" d="M490.5,-1028.5C490.5,-1028.5 273.5,-1028.5 273.5,-1028.5 267.5,-1028.5 261.5,-1022.5 261.5,-1016.5 261.5,-1016.5 261.5,-1002.5 261.5,-1002.5 261.5,-996.5 267.5,-990.5 273.5,-990.5 273.5,-990.5 490.5,-990.5 490.5,-990.5 496.5,-990.5 502.5,-996.5 502.5,-1002.5 502.5,-1002.5 502.5,-1016.5 502.5,-1016.5 502.5,-1022.5 496.5,-1028.5 490.5,-1028.5"/>
<text text-anchor="middle" x="382" y="-1013.3" font-family="Times New Roman,serif" font-size="14.00">get original document</text>
<text text-anchor="middle" x="382" y="-998.3" font-family="Times New Roman,serif" font-size="14.00">(paper, held by Austrian State Archives)</text>
</g>
<!-- nobook&#45;&gt;sources -->
<g id="edge4" class="edge"><title>nobook&#45;&gt;sources</title>
<path fill="none" stroke="black" d="M382,-1074.44C382,-1074.44 382,-1038.78 382,-1038.78"/>
<polygon fill="black" stroke="black" points="385.5,-1038.78 382,-1028.78 378.5,-1038.78 385.5,-1038.78"/>
</g>
<!-- books -->
<g id="node8" class="node"><title>books</title>
<path fill="none" stroke="black" d="M179,-1028.5C179,-1028.5 43,-1028.5 43,-1028.5 37,-1028.5 31,-1022.5 31,-1016.5 31,-1016.5 31,-1002.5 31,-1002.5 31,-996.5 37,-990.5 43,-990.5 43,-990.5 179,-990.5 179,-990.5 185,-990.5 191,-996.5 191,-1002.5 191,-1002.5 191,-1016.5 191,-1016.5 191,-1022.5 185,-1028.5 179,-1028.5"/>
<text text-anchor="middle" x="111" y="-1013.3" font-family="Times New Roman,serif" font-size="14.00">get printed books</text>
<text text-anchor="middle" x="111" y="-998.3" font-family="Times New Roman,serif" font-size="14.00">28 vols edited 1970–2015</text>
</g>
<!-- book&#45;&gt;books -->
<g id="edge6" class="edge"><title>book&#45;&gt;books</title>
<path fill="none" stroke="black" d="M167.25,-1074.44C167.25,-1074.44 167.25,-1038.78 167.25,-1038.78"/>
<polygon fill="black" stroke="black" points="170.75,-1038.78 167.25,-1028.78 163.75,-1038.78 170.75,-1038.78"/>
</g>
<!-- pics -->
<g id="node13" class="node"><title>pics</title>
<path fill="none" stroke="black" d="M414,-943.5C414,-943.5 298,-943.5 298,-943.5 292,-943.5 286,-937.5 286,-931.5 286,-931.5 286,-919.5 286,-919.5 286,-913.5 292,-907.5 298,-907.5 298,-907.5 414,-907.5 414,-907.5 420,-907.5 426,-913.5 426,-919.5 426,-919.5 426,-931.5 426,-931.5 426,-937.5 420,-943.5 414,-943.5"/>
<text text-anchor="middle" x="356" y="-921.8" font-family="Times New Roman,serif" font-size="14.00">photograph document</text>
</g>
<!-- sources&#45;&gt;pics -->
<g id="edge35" class="edge"><title>sources&#45;&gt;pics</title>
<path fill="none" stroke="black" d="M356,-990.439C356,-990.439 356,-953.622 356,-953.622"/>
<polygon fill="black" stroke="black" points="359.5,-953.622 356,-943.622 352.5,-953.622 359.5,-953.622"/>
</g>
<!-- getmetadata -->
<g id="node20" class="node"><title>getmetadata</title>
<path fill="none" stroke="black" d="M518,-943.5C518,-943.5 456,-943.5 456,-943.5 450,-943.5 444,-937.5 444,-931.5 444,-931.5 444,-919.5 444,-919.5 444,-913.5 450,-907.5 456,-907.5 456,-907.5 518,-907.5 518,-907.5 524,-907.5 530,-913.5 530,-919.5 530,-919.5 530,-931.5 530,-931.5 530,-937.5 524,-943.5 518,-943.5"/>
<text text-anchor="middle" x="487" y="-921.8" font-family="Times New Roman,serif" font-size="14.00">get metadata</text>
</g>
<!-- sources&#45;&gt;getmetadata -->
<g id="edge8" class="edge"><title>sources&#45;&gt;getmetadata</title>
<path fill="none" stroke="black" d="M473.25,-990.439C473.25,-990.439 473.25,-953.622 473.25,-953.622"/>
<polygon fill="black" stroke="black" points="476.75,-953.622 473.25,-943.622 469.75,-953.622 476.75,-953.622"/>
</g>
<!-- pdfs -->
<g id="node9" class="node"><title>pdfs</title>
<path fill="none" stroke="black" d="M142,-952C142,-952 72,-952 72,-952 66,-952 60,-946 60,-940 60,-940 60,-911 60,-911 60,-905 66,-899 72,-899 72,-899 142,-899 142,-899 148,-899 154,-905 154,-911 154,-911 154,-940 154,-940 154,-946 148,-952 142,-952"/>
<text text-anchor="middle" x="107" y="-936.8" font-family="Times New Roman,serif" font-size="14.00">scan to</text>
<text text-anchor="middle" x="107" y="-921.8" font-family="Times New Roman,serif" font-size="14.00">PDF format</text>
<text text-anchor="middle" x="107" y="-906.8" font-family="Times New Roman,serif" font-size="14.00">~18000 pages</text>
</g>
<!-- books&#45;&gt;pdfs -->
<g id="edge37" class="edge"><title>books&#45;&gt;pdfs</title>
<path fill="none" stroke="black" d="M107,-990.439C107,-990.439 107,-962.127 107,-962.127"/>
<polygon fill="black" stroke="black" points="110.5,-962.127 107,-952.127 103.5,-962.127 110.5,-962.127"/>
</g>
<!-- xml -->
<g id="node10" class="node"><title>xml</title>
<path fill="none" stroke="black" d="M181.5,-863C181.5,-863 28.5,-863 28.5,-863 22.5,-863 16.5,-857 16.5,-851 16.5,-851 16.5,-837 16.5,-837 16.5,-831 22.5,-825 28.5,-825 28.5,-825 181.5,-825 181.5,-825 187.5,-825 193.5,-831 193.5,-837 193.5,-837 193.5,-851 193.5,-851 193.5,-857 187.5,-863 181.5,-863"/>
<text text-anchor="middle" x="105" y="-847.8" font-family="Times New Roman,serif" font-size="14.00">publish as generic XML data</text>
<text text-anchor="middle" x="105" y="-832.8" font-family="Times New Roman,serif" font-size="14.00">hw.oeaw.ac.at/ministerrat/</text>
</g>
<!-- pdfs&#45;&gt;xml -->
<g id="edge38" class="edge"><title>pdfs&#45;&gt;xml</title>
<path fill="none" stroke="black" d="M107,-898.814C107,-898.814 107,-873.253 107,-873.253"/>
<polygon fill="black" stroke="black" points="110.5,-873.253 107,-863.253 103.5,-873.253 110.5,-873.253"/>
</g>
<!-- xmlfile -->
<g id="node11" class="node"><title>xmlfile</title>
<polygon fill="none" stroke="black" points="134.5,-789 73.5,-789 73.5,-751 140.5,-751 140.5,-783 134.5,-789"/>
<polyline fill="none" stroke="black" points="134.5,-789 134.5,-783 "/>
<polyline fill="none" stroke="black" points="140.5,-783 134.5,-783 "/>
<text text-anchor="middle" x="107" y="-773.8" font-family="Times New Roman,serif" font-size="14.00">generic</text>
<text text-anchor="middle" x="107" y="-758.8" font-family="Times New Roman,serif" font-size="14.00">XML file</text>
</g>
<!-- xml&#45;&gt;xmlfile -->
<g id="edge7" class="edge"><title>xml&#45;&gt;xmlfile</title>
<path fill="none" stroke="black" d="M107,-824.943C107,-824.943 107,-799.249 107,-799.249"/>
<polygon fill="black" stroke="black" points="110.5,-799.249 107,-789.249 103.5,-799.249 110.5,-799.249"/>
</g>
<!-- transformxml2tei2 -->
<g id="node34" class="node"><title>transformxml2tei2</title>
<path fill="none" stroke="black" d="M177,-286.5C177,-286.5 91,-286.5 91,-286.5 85,-286.5 79,-280.5 79,-274.5 79,-274.5 79,-262.5 79,-262.5 79,-256.5 85,-250.5 91,-250.5 91,-250.5 177,-250.5 177,-250.5 183,-250.5 189,-256.5 189,-262.5 189,-262.5 189,-274.5 189,-274.5 189,-280.5 183,-286.5 177,-286.5"/>
<text text-anchor="middle" x="134" y="-264.8" font-family="Times New Roman,serif" font-size="14.00">run custom XSL</text>
</g>
<!-- xmlfile&#45;&gt;transformxml2tei2 -->
<g id="edge40" class="edge"><title>xmlfile&#45;&gt;transformxml2tei2</title>
<path fill="none" stroke="black" d="M109.75,-750.953C109.75,-750.953 109.75,-296.506 109.75,-296.506"/>
<polygon fill="black" stroke="black" points="113.25,-296.506 109.75,-286.506 106.25,-296.506 113.25,-296.506"/>
</g>
<!-- selecttranscript -->
<g id="node12" class="node"><title>selecttranscript</title>
<polygon fill="none" stroke="black" points="356,-862 269.698,-844 356,-826 442.302,-844 356,-862"/>
<text text-anchor="middle" x="356" y="-840.3" font-family="Times New Roman,serif" font-size="14.00">select method</text>
</g>
<!-- handwritten -->
<g id="node18" class="node"><title>handwritten</title>
<polygon fill="none" stroke="black" points="471.5,-789 386.5,-789 386.5,-751 471.5,-751 471.5,-789"/>
<text text-anchor="middle" x="429" y="-773.8" font-family="Times New Roman,serif" font-size="14.00">handwritten/</text>
<text text-anchor="middle" x="429" y="-758.8" font-family="Times New Roman,serif" font-size="14.00">fragmentary</text>
</g>
<!-- selecttranscript&#45;&gt;handwritten -->
<g id="edge10" class="edge"><title>selecttranscript:e&#45;&gt;handwritten</title>
<path fill="none" stroke="black" d="M414.45,-844C414.45,-844 414.45,-799.057 414.45,-799.057"/>
<polygon fill="black" stroke="black" points="417.95,-799.057 414.45,-789.057 410.95,-799.057 417.95,-799.057"/>
</g>
<!-- typewritten -->
<g id="node19" class="node"><title>typewritten</title>
<polygon fill="none" stroke="black" points="343,-789 241,-789 241,-751 343,-751 343,-789"/>
<text text-anchor="middle" x="292" y="-773.8" font-family="Times New Roman,serif" font-size="14.00">typewritten and</text>
<text text-anchor="middle" x="292" y="-758.8" font-family="Times New Roman,serif" font-size="14.00">complete</text>
</g>
<!-- selecttranscript&#45;&gt;typewritten -->
<g id="edge12" class="edge"><title>selecttranscript:w&#45;&gt;typewritten</title>
<path fill="none" stroke="black" d="M306.3,-844C306.3,-844 306.3,-799.057 306.3,-799.057"/>
<polygon fill="black" stroke="black" points="309.8,-799.057 306.3,-789.057 302.8,-799.057 309.8,-799.057"/>
</g>
<!-- pics&#45;&gt;selecttranscript -->
<g id="edge36" class="edge"><title>pics&#45;&gt;selecttranscript</title>
<path fill="none" stroke="black" d="M332.667,-907.413C332.667,-907.413 332.667,-867.225 332.667,-867.225"/>
<polygon fill="black" stroke="black" points="336.167,-867.225 332.667,-857.225 329.167,-867.225 336.167,-867.225"/>
</g>
<!-- jpgfile -->
<g id="node16" class="node"><title>jpgfile</title>
<polygon fill="none" stroke="black" points="524,-375.5 476,-375.5 476,-339.5 530,-339.5 530,-369.5 524,-375.5"/>
<polyline fill="none" stroke="black" points="524,-375.5 524,-369.5 "/>
<polyline fill="none" stroke="black" points="530,-369.5 524,-369.5 "/>
<text text-anchor="middle" x="503" y="-353.8" font-family="Times New Roman,serif" font-size="14.00">.jpg</text>
</g>
<!-- pics&#45;&gt;jpgfile -->
<g id="edge22" class="edge"><title>pics&#45;&gt;jpgfile</title>
<path fill="none" stroke="black" d="M379.333,-907.45C379.333,-904.295 379.333,-902 379.333,-902 379.333,-902 515,-902 515,-902 515,-902 515,-385.616 515,-385.616"/>
<polygon fill="black" stroke="black" points="518.5,-385.616 515,-375.616 511.5,-385.617 518.5,-385.616"/>
</g>
<!-- docxfile0 -->
<g id="node14" class="node"><title>docxfile0</title>
<polygon fill="none" stroke="black" points="428,-563 300,-563 300,-509 434,-509 434,-557 428,-563"/>
<polyline fill="none" stroke="black" points="428,-563 428,-557 "/>
<polyline fill="none" stroke="black" points="434,-557 428,-557 "/>
<text text-anchor="middle" x="367" y="-539.8" font-family="Times New Roman,serif" font-size="14.00">raw MS Word .docx</text>
<text text-anchor="middle" x="367" y="-524.8" font-family="Times New Roman,serif" font-size="14.00">(one file per session)</text>
</g>
<!-- enrich -->
<g id="node17" class="node"><title>enrich</title>
<path fill="none" stroke="black" d="M411.5,-473C411.5,-473 322.5,-473 322.5,-473 316.5,-473 310.5,-467 310.5,-461 310.5,-461 310.5,-432 310.5,-432 310.5,-426 316.5,-420 322.5,-420 322.5,-420 411.5,-420 411.5,-420 417.5,-420 423.5,-426 423.5,-432 423.5,-432 423.5,-461 423.5,-461 423.5,-467 417.5,-473 411.5,-473"/>
<text text-anchor="middle" x="367" y="-457.8" font-family="Times New Roman,serif" font-size="14.00">add id references</text>
<text text-anchor="middle" x="367" y="-442.8" font-family="Times New Roman,serif" font-size="14.00">to named entities</text>
<text text-anchor="middle" x="367" y="-427.8" font-family="Times New Roman,serif" font-size="14.00">via plugin</text>
</g>
<!-- docxfile0&#45;&gt;enrich -->
<g id="edge20" class="edge"><title>docxfile0&#45;&gt;enrich</title>
<path fill="none" stroke="black" d="M367,-508.661C367,-508.661 367,-483.058 367,-483.058"/>
<polygon fill="black" stroke="black" points="370.5,-483.058 367,-473.058 363.5,-483.058 370.5,-483.058"/>
</g>
<!-- collate -->
<g id="node23" class="node"><title>collate</title>
<path fill="none" stroke="black" d="M280,-464.5C280,-464.5 250,-464.5 250,-464.5 244,-464.5 238,-458.5 238,-452.5 238,-452.5 238,-440.5 238,-440.5 238,-434.5 244,-428.5 250,-428.5 250,-428.5 280,-428.5 280,-428.5 286,-428.5 292,-434.5 292,-440.5 292,-440.5 292,-452.5 292,-452.5 292,-458.5 286,-464.5 280,-464.5"/>
<text text-anchor="middle" x="265" y="-442.8" font-family="Times New Roman,serif" font-size="14.00">collate</text>
</g>
<!-- docxfile0&#45;&gt;collate -->
<g id="edge15" class="edge"><title>docxfile0&#45;&gt;collate</title>
<path fill="none" stroke="black" d="M306.25,-508.997C306.25,-482.487 306.25,-446 306.25,-446 306.25,-446 302.285,-446 302.285,-446"/>
<polygon fill="black" stroke="black" points="302.285,-442.5 292.285,-446 302.285,-449.5 302.285,-442.5"/>
</g>
<!-- comment -->
<g id="node24" class="node"><title>comment</title>
<path fill="none" stroke="black" d="M498,-464.5C498,-464.5 454,-464.5 454,-464.5 448,-464.5 442,-458.5 442,-452.5 442,-452.5 442,-440.5 442,-440.5 442,-434.5 448,-428.5 454,-428.5 454,-428.5 498,-428.5 498,-428.5 504,-428.5 510,-434.5 510,-440.5 510,-440.5 510,-452.5 510,-452.5 510,-458.5 504,-464.5 498,-464.5"/>
<text text-anchor="middle" x="476" y="-442.8" font-family="Times New Roman,serif" font-size="14.00">comment</text>
</g>
<!-- docxfile0&#45;&gt;comment -->
<g id="edge17" class="edge"><title>docxfile0&#45;&gt;comment</title>
<path fill="none" stroke="black" d="M428.75,-508.997C428.75,-482.487 428.75,-446 428.75,-446 428.75,-446 431.912,-446 431.912,-446"/>
<polygon fill="black" stroke="black" points="431.912,-449.5 441.912,-446 431.912,-442.5 431.912,-449.5"/>
</g>
<!-- docxfile -->
<g id="node15" class="node"><title>docxfile</title>
<polygon fill="none" stroke="black" points="296,-384 228,-384 228,-331 302,-331 302,-378 296,-384"/>
<polyline fill="none" stroke="black" points="296,-384 296,-378 "/>
<polyline fill="none" stroke="black" points="302,-378 296,-378 "/>
<text text-anchor="middle" x="265" y="-368.8" font-family="Times New Roman,serif" font-size="14.00">enriched</text>
<text text-anchor="middle" x="265" y="-353.8" font-family="Times New Roman,serif" font-size="14.00">MS Word</text>
<text text-anchor="middle" x="265" y="-338.8" font-family="Times New Roman,serif" font-size="14.00">.docx</text>
</g>
<!-- transformdocx -->
<g id="node32" class="node"><title>transformdocx</title>
<path fill="none" stroke="black" d="M300.5,-295C300.5,-295 223.5,-295 223.5,-295 217.5,-295 211.5,-289 211.5,-283 211.5,-283 211.5,-254 211.5,-254 211.5,-248 217.5,-242 223.5,-242 223.5,-242 300.5,-242 300.5,-242 306.5,-242 312.5,-248 312.5,-254 312.5,-254 312.5,-283 312.5,-283 312.5,-289 306.5,-295 300.5,-295"/>
<text text-anchor="middle" x="262" y="-279.8" font-family="Times New Roman,serif" font-size="14.00">run</text>
<text text-anchor="middle" x="262" y="-264.8" font-family="Times New Roman,serif" font-size="14.00">DOCX TEI P5</text>
<text text-anchor="middle" x="262" y="-249.8" font-family="Times New Roman,serif" font-size="14.00">(Ant/XSL)</text>
</g>
<!-- docxfile&#45;&gt;transformdocx -->
<g id="edge33" class="edge"><title>docxfile&#45;&gt;transformdocx</title>
<path fill="none" stroke="black" d="M265,-330.797C265,-330.797 265,-305.184 265,-305.184"/>
<polygon fill="black" stroke="black" points="268.5,-305.184 265,-295.184 261.5,-305.184 268.5,-305.184"/>
</g>
<!-- jpgfile&#45;&gt;end -->
<g id="edge46" class="edge"><title>jpgfile&#45;&gt;end</title>
<path fill="none" stroke="black" d="M530.001,-357C561.698,-357 610,-357 610,-357 610,-357 610,-22 610,-22 610,-22 646.788,-22 646.788,-22"/>
<polygon fill="black" stroke="black" points="646.788,-25.5001 656.788,-22 646.788,-18.5001 646.788,-25.5001"/>
</g>
<!-- enrich&#45;&gt;docxfile -->
<g id="edge21" class="edge"><title>enrich&#45;&gt;docxfile</title>
<path fill="none" stroke="black" d="M310.368,-424C301.933,-424 296,-424 296,-424 296,-424 296,-394.165 296,-394.165"/>
<polygon fill="black" stroke="black" points="299.5,-394.165 296,-384.165 292.5,-394.165 299.5,-394.165"/>
</g>
<!-- curateNE -->
<g id="node26" class="node"><title>curateNE</title>
<path fill="none" stroke="black" d="M646.5,-863C646.5,-863 575.5,-863 575.5,-863 569.5,-863 563.5,-857 563.5,-851 563.5,-851 563.5,-837 563.5,-837 563.5,-831 569.5,-825 575.5,-825 575.5,-825 646.5,-825 646.5,-825 652.5,-825 658.5,-831 658.5,-837 658.5,-837 658.5,-851 658.5,-851 658.5,-857 652.5,-863 646.5,-863"/>
<text text-anchor="middle" x="611" y="-847.8" font-family="Times New Roman,serif" font-size="14.00">curate</text>
<text text-anchor="middle" x="611" y="-832.8" font-family="Times New Roman,serif" font-size="14.00">named entities</text>
</g>
<!-- enrich&#45;&gt;curateNE -->
<g id="edge30" class="edge"><title>enrich&#45;&gt;curateNE</title>
<path fill="none" stroke="black" d="M423.603,-467C507.098,-467 653.5,-467 653.5,-467 653.5,-467 653.5,-814.786 653.5,-814.786"/>
<polygon fill="black" stroke="black" points="650,-814.786 653.5,-824.786 657,-814.786 650,-814.786"/>
</g>
<!-- docx -->
<g id="node21" class="node"><title>docx</title>
<path fill="none" stroke="black" d="M465,-691C465,-691 385,-691 385,-691 379,-691 373,-685 373,-679 373,-679 373,-635 373,-635 373,-629 379,-623 385,-623 385,-623 465,-623 465,-623 471,-623 477,-629 477,-635 477,-635 477,-679 477,-679 477,-685 471,-691 465,-691"/>
<text text-anchor="middle" x="425" y="-675.8" font-family="Times New Roman,serif" font-size="14.00">transcribe</text>
<text text-anchor="middle" x="425" y="-660.8" font-family="Times New Roman,serif" font-size="14.00">manually</text>
<text text-anchor="middle" x="425" y="-645.8" font-family="Times New Roman,serif" font-size="14.00">using dedicated</text>
<text text-anchor="middle" x="425" y="-630.8" font-family="Times New Roman,serif" font-size="14.00">dotx template</text>
</g>
<!-- handwritten&#45;&gt;docx -->
<g id="edge11" class="edge"><title>handwritten&#45;&gt;docx</title>
<path fill="none" stroke="black" d="M429,-750.831C429,-750.831 429,-701.371 429,-701.371"/>
<polygon fill="black" stroke="black" points="432.5,-701.371 429,-691.371 425.5,-701.371 432.5,-701.371"/>
</g>
<!-- transkribus -->
<g id="node22" class="node"><title>transkribus</title>
<path fill="none" stroke="black" d="M336,-683.5C336,-683.5 256,-683.5 256,-683.5 250,-683.5 244,-677.5 244,-671.5 244,-671.5 244,-642.5 244,-642.5 244,-636.5 250,-630.5 256,-630.5 256,-630.5 336,-630.5 336,-630.5 342,-630.5 348,-636.5 348,-642.5 348,-642.5 348,-671.5 348,-671.5 348,-677.5 342,-683.5 336,-683.5"/>
<text text-anchor="middle" x="296" y="-668.3" font-family="Times New Roman,serif" font-size="14.00">transcribe using</text>
<text text-anchor="middle" x="296" y="-653.3" font-family="Times New Roman,serif" font-size="14.00">transkribus.eu</text>
<text text-anchor="middle" x="296" y="-638.3" font-family="Times New Roman,serif" font-size="14.00">(HTR)</text>
</g>
<!-- typewritten&#45;&gt;transkribus -->
<g id="edge13" class="edge"><title>typewritten&#45;&gt;transkribus</title>
<path fill="none" stroke="black" d="M293.5,-750.831C293.5,-750.831 293.5,-693.9 293.5,-693.9"/>
<polygon fill="black" stroke="black" points="297,-693.9 293.5,-683.9 290,-693.9 297,-693.9"/>
</g>
<!-- getmetadata&#45;&gt;docxfile -->
<g id="edge9" class="edge"><title>getmetadata&#45;&gt;docxfile</title>
<path fill="none" stroke="black" d="M520,-907.284C520,-812.284 520,-378 520,-378 520,-378 312.079,-378 312.079,-378"/>
<polygon fill="black" stroke="black" points="312.079,-374.5 302.079,-378 312.079,-381.5 312.079,-374.5"/>
</g>
<!-- NE -->
<g id="node30" class="node"><title>NE</title>
<polygon fill="none" stroke="black" points="546.5,-599.5 546.5,-714.5 617.5,-714.5 617.5,-599.5 546.5,-599.5"/>
<text text-anchor="middle" x="582" y="-699.3" font-family="Times New Roman,serif" font-size="14.00">event</text>
<polyline fill="none" stroke="black" points="546.5,-691.5 617.5,-691.5 "/>
<text text-anchor="middle" x="582" y="-676.3" font-family="Times New Roman,serif" font-size="14.00">institution</text>
<polyline fill="none" stroke="black" points="546.5,-668.5 617.5,-668.5 "/>
<text text-anchor="middle" x="582" y="-653.3" font-family="Times New Roman,serif" font-size="14.00">person</text>
<polyline fill="none" stroke="black" points="546.5,-645.5 617.5,-645.5 "/>
<text text-anchor="middle" x="582" y="-630.3" font-family="Times New Roman,serif" font-size="14.00">place</text>
<polyline fill="none" stroke="black" points="546.5,-622.5 617.5,-622.5 "/>
<text text-anchor="middle" x="582" y="-607.3" font-family="Times New Roman,serif" font-size="14.00">work</text>
</g>
<!-- getmetadata&#45;&gt;NE -->
<g id="edge39" class="edge"><title>getmetadata&#45;&gt;NE</title>
<path fill="none" stroke="black" d="M530.237,-925C541.355,-925 550.25,-925 550.25,-925 550.25,-925 550.25,-724.822 550.25,-724.822"/>
<polygon fill="black" stroke="black" points="553.75,-724.822 550.25,-714.822 546.75,-724.822 553.75,-724.822"/>
</g>
<!-- docx&#45;&gt;docxfile0 -->
<g id="edge14" class="edge"><title>docx&#45;&gt;docxfile0</title>
<path fill="none" stroke="black" d="M403.5,-622.973C403.5,-622.973 403.5,-573.274 403.5,-573.274"/>
<polygon fill="black" stroke="black" points="407,-573.274 403.5,-563.274 400,-573.274 407,-573.274"/>
</g>
<!-- transkribus&#45;&gt;docxfile0 -->
<g id="edge19" class="edge"><title>transkribus&#45;&gt;docxfile0</title>
<path fill="none" stroke="black" d="M324,-630.446C324,-630.446 324,-573.33 324,-573.33"/>
<polygon fill="black" stroke="black" points="327.5,-573.33 324,-563.33 320.5,-573.33 327.5,-573.33"/>
</g>
<!-- collate&#45;&gt;docxfile -->
<g id="edge16" class="edge"><title>collate&#45;&gt;docxfile</title>
<path fill="none" stroke="black" d="M265,-428.49C265,-428.49 265,-394.267 265,-394.267"/>
<polygon fill="black" stroke="black" points="268.5,-394.267 265,-384.267 261.5,-394.267 268.5,-394.267"/>
</g>
<!-- comment&#45;&gt;docxfile -->
<g id="edge18" class="edge"><title>comment&#45;&gt;docxfile</title>
<path fill="none" stroke="black" d="M459,-428.255C459,-408.874 459,-381 459,-381 459,-381 312.405,-381 312.405,-381"/>
<polygon fill="black" stroke="black" points="312.405,-377.5 302.405,-381 312.405,-384.5 312.405,-377.5"/>
</g>
<!-- curateBibl -->
<g id="node27" class="node"><title>curateBibl</title>
<path fill="none" stroke="black" d="M760,-944.5C760,-944.5 698,-944.5 698,-944.5 692,-944.5 686,-938.5 686,-932.5 686,-932.5 686,-918.5 686,-918.5 686,-912.5 692,-906.5 698,-906.5 698,-906.5 760,-906.5 760,-906.5 766,-906.5 772,-912.5 772,-918.5 772,-918.5 772,-932.5 772,-932.5 772,-938.5 766,-944.5 760,-944.5"/>
<text text-anchor="middle" x="729" y="-929.3" font-family="Times New Roman,serif" font-size="14.00">curate</text>
<text text-anchor="middle" x="729" y="-914.3" font-family="Times New Roman,serif" font-size="14.00">bibliography</text>
</g>
<!-- comment&#45;&gt;curateBibl -->
<g id="edge31" class="edge"><title>comment&#45;&gt;curateBibl</title>
<path fill="none" stroke="black" d="M510.025,-446C576.077,-446 715.25,-446 715.25,-446 715.25,-446 715.25,-896.407 715.25,-896.407"/>
<polygon fill="black" stroke="black" points="711.75,-896.407 715.25,-906.407 718.75,-896.407 711.75,-896.407"/>
</g>
<!-- collectNE&#45;&gt;curateNE -->
<g id="edge23" class="edge"><title>collectNE&#45;&gt;curateNE</title>
<path fill="none" stroke="black" d="M611,-906.186C611,-906.186 611,-873.176 611,-873.176"/>
<polygon fill="black" stroke="black" points="614.5,-873.176 611,-863.176 607.5,-873.176 614.5,-873.176"/>
</g>
<!-- storeAPIS -->
<g id="node28" class="node"><title>storeAPIS</title>
<path fill="none" stroke="black" d="M638,-789C638,-789 566,-789 566,-789 560,-789 554,-783 554,-777 554,-777 554,-763 554,-763 554,-757 560,-751 566,-751 566,-751 638,-751 638,-751 644,-751 650,-757 650,-763 650,-763 650,-777 650,-777 650,-783 644,-789 638,-789"/>
<text text-anchor="middle" x="602" y="-773.8" font-family="Times New Roman,serif" font-size="14.00">store in</text>
<text text-anchor="middle" x="602" y="-758.8" font-family="Times New Roman,serif" font-size="14.00">APIS instance</text>
</g>
<!-- curateNE&#45;&gt;storeAPIS -->
<g id="edge25" class="edge"><title>curateNE&#45;&gt;storeAPIS</title>
<path fill="none" stroke="black" d="M606.75,-824.943C606.75,-824.943 606.75,-799.249 606.75,-799.249"/>
<polygon fill="black" stroke="black" points="610.25,-799.249 606.75,-789.249 603.25,-799.249 610.25,-799.249"/>
</g>
<!-- NEtei -->
<g id="node29" class="node"><title>NEtei</title>
<polygon fill="none" stroke="black" points="744.5,-599.5 744.5,-714.5 831.5,-714.5 831.5,-599.5 744.5,-599.5"/>
<text text-anchor="middle" x="788" y="-699.3" font-family="Times New Roman,serif" font-size="14.00">tei:listEvent</text>
<polyline fill="none" stroke="black" points="744.5,-691.5 831.5,-691.5 "/>
<text text-anchor="middle" x="788" y="-676.3" font-family="Times New Roman,serif" font-size="14.00">tei:listOrg</text>
<polyline fill="none" stroke="black" points="744.5,-668.5 831.5,-668.5 "/>
<text text-anchor="middle" x="788" y="-653.3" font-family="Times New Roman,serif" font-size="14.00">tei:listPerson</text>
<polyline fill="none" stroke="black" points="744.5,-645.5 831.5,-645.5 "/>
<text text-anchor="middle" x="788" y="-630.3" font-family="Times New Roman,serif" font-size="14.00">tei:listPlace</text>
<polyline fill="none" stroke="black" points="744.5,-622.5 831.5,-622.5 "/>
<text text-anchor="middle" x="788" y="-607.3" font-family="Times New Roman,serif" font-size="14.00">tei:listbibl</text>
</g>
<!-- curateBibl&#45;&gt;NEtei -->
<g id="edge24" class="edge"><title>curateBibl&#45;&gt;NEtei</title>
<path fill="none" stroke="black" d="M758.25,-906.19C758.25,-906.19 758.25,-724.585 758.25,-724.585"/>
<polygon fill="black" stroke="black" points="761.75,-724.585 758.25,-714.585 754.75,-724.585 761.75,-724.585"/>
</g>
<!-- storeAPIS&#45;&gt;NE -->
<g id="edge26" class="edge"><title>storeAPIS&#45;&gt;NE</title>
<path fill="none" stroke="black" d="M585.75,-750.831C585.75,-750.831 585.75,-724.783 585.75,-724.783"/>
<polygon fill="black" stroke="black" points="589.25,-724.783 585.75,-714.783 582.25,-724.783 589.25,-724.783"/>
</g>
<!-- tei2 -->
<g id="node31" class="node"><title>tei2</title>
<polygon fill="lightgray" stroke="lightgray" points="441.5,-206 358.5,-206 358.5,-152 447.5,-152 447.5,-200 441.5,-206"/>
<polyline fill="none" stroke="lightgray" points="441.5,-206 441.5,-200 "/>
<polyline fill="none" stroke="lightgray" points="447.5,-200 441.5,-200 "/>
<text text-anchor="middle" x="403" y="-182.8" font-family="Times New Roman,serif" font-size="14.00">enriched TEI</text>
<text text-anchor="middle" x="403" y="-167.8" font-family="Times New Roman,serif" font-size="14.00">XML file</text>
</g>
<!-- NEtei&#45;&gt;tei2 -->
<g id="edge28" class="edge"><title>NEtei&#45;&gt;tei2</title>
<path fill="none" stroke="black" d="M763.5,-599.247C763.5,-476.544 763.5,-201 763.5,-201 763.5,-201 457.566,-201 457.566,-201"/>
<polygon fill="black" stroke="black" points="457.566,-197.5 447.566,-201 457.566,-204.5 457.566,-197.5"/>
</g>
<!-- NE&#45;&gt;jpgfile -->
<g id="edge47" class="edge"><title>NE&#45;&gt;jpgfile</title>
<path fill="none" stroke="black" d="M536.225,-611C536.225,-611 525,-611 525,-611 525,-611 525,-433.856 525,-375.731"/>
<polygon fill="black" stroke="black" points="536.225,-614.5 546.225,-611 536.225,-607.5 536.225,-614.5"/>
</g>
<!-- NE&#45;&gt;enrich -->
<g id="edge29" class="edge"><title>NE&#45;&gt;enrich</title>
<path fill="none" stroke="black" d="M574.5,-599.368C574.5,-544.423 574.5,-470 574.5,-470 574.5,-470 433.7,-470 433.7,-470"/>
<polygon fill="black" stroke="black" points="433.7,-466.5 423.7,-470 433.7,-473.5 433.7,-466.5"/>
</g>
<!-- NE&#45;&gt;NEtei -->
<g id="edge27" class="edge"><title>NE&#45;&gt;NEtei</title>
<path fill="none" stroke="black" d="M617.882,-657C617.882,-657 734.305,-657 734.305,-657"/>
<polygon fill="black" stroke="black" points="734.305,-660.5 744.305,-657 734.305,-653.5 734.305,-660.5"/>
</g>
<!-- control output quality -->
<g id="node36" class="node"><title>control output quality</title>
<path fill="none" stroke="black" d="M590.5,-197C590.5,-197 477.5,-197 477.5,-197 471.5,-197 465.5,-191 465.5,-185 465.5,-185 465.5,-173 465.5,-173 465.5,-167 471.5,-161 477.5,-161 477.5,-161 590.5,-161 590.5,-161 596.5,-161 602.5,-167 602.5,-173 602.5,-173 602.5,-185 602.5,-185 602.5,-191 596.5,-197 590.5,-197"/>
<text text-anchor="middle" x="534" y="-175.3" font-family="Times New Roman,serif" font-size="14.00">control output quality</text>
</g>
<!-- tei2&#45;&gt;control output quality -->
<g id="edge44" class="edge"><title>tei2&#45;&gt;control output quality</title>
<path fill="none" stroke="black" d="M447.716,-173C447.716,-173 455.11,-173 455.11,-173"/>
<polygon fill="black" stroke="black" points="455.11,-176.5 465.11,-173 455.11,-169.5 455.11,-176.5"/>
</g>
<!-- iflicence -->
<g id="node37" class="node"><title>iflicence</title>
<polygon fill="none" stroke="black" points="540,-116 483.863,-98 540,-80 596.137,-98 540,-116"/>
<text text-anchor="middle" x="540" y="-94.3" font-family="Times New Roman,serif" font-size="14.00">licence?</text>
</g>
<!-- tei2&#45;&gt;iflicence -->
<g id="edge48" class="edge"><title>tei2&#45;&gt;iflicence</title>
<path fill="none" stroke="black" d="M447.859,-156C487.814,-156 540,-156 540,-156 540,-156 540,-126.034 540,-126.034"/>
<polygon fill="black" stroke="black" points="543.5,-126.034 540,-116.034 536.5,-126.034 543.5,-126.034"/>
</g>
<!-- tei -->
<g id="node33" class="node"><title>tei</title>
<polygon fill="none" stroke="black" points="397,-286.5 331,-286.5 331,-250.5 403,-250.5 403,-280.5 397,-286.5"/>
<polyline fill="none" stroke="black" points="397,-286.5 397,-280.5 "/>
<polyline fill="none" stroke="black" points="403,-280.5 397,-280.5 "/>
<text text-anchor="middle" x="367" y="-264.8" font-family="Times New Roman,serif" font-size="14.00">TEI XML</text>
</g>
<!-- transformdocx&#45;&gt;tei -->
<g id="edge34" class="edge"><title>transformdocx&#45;&gt;tei</title>
<path fill="none" stroke="black" d="M312.655,-268C312.655,-268 320.977,-268 320.977,-268"/>
<polygon fill="black" stroke="black" points="320.977,-271.5 330.977,-268 320.977,-264.5 320.977,-271.5"/>
</g>
<!-- transformtei2tei -->
<g id="node35" class="node"><title>transformtei2tei</title>
<path fill="none" stroke="black" d="M519,-286.5C519,-286.5 433,-286.5 433,-286.5 427,-286.5 421,-280.5 421,-274.5 421,-274.5 421,-262.5 421,-262.5 421,-256.5 427,-250.5 433,-250.5 433,-250.5 519,-250.5 519,-250.5 525,-250.5 531,-256.5 531,-262.5 531,-262.5 531,-274.5 531,-274.5 531,-280.5 525,-286.5 519,-286.5"/>
<text text-anchor="middle" x="476" y="-264.8" font-family="Times New Roman,serif" font-size="14.00">run custom XSL</text>
</g>
<!-- tei&#45;&gt;transformtei2tei -->
<g id="edge42" class="edge"><title>tei&#45;&gt;transformtei2tei</title>
<path fill="none" stroke="black" d="M403.295,-268C403.295,-268 410.996,-268 410.996,-268"/>
<polygon fill="black" stroke="black" points="410.996,-271.5 420.996,-268 410.996,-264.5 410.996,-271.5"/>
</g>
<!-- transformxml2tei2&#45;&gt;tei2 -->
<g id="edge41" class="edge"><title>transformxml2tei2&#45;&gt;tei2</title>
<path fill="none" stroke="black" d="M134,-250.388C134,-224.236 134,-179 134,-179 134,-179 348.278,-179 348.278,-179"/>
<polygon fill="black" stroke="black" points="348.278,-182.5 358.278,-179 348.278,-175.5 348.278,-182.5"/>
</g>
<!-- transformtei2tei&#45;&gt;tei2 -->
<g id="edge43" class="edge"><title>transformtei2tei&#45;&gt;tei2</title>
<path fill="none" stroke="black" d="M434.25,-250.388C434.25,-250.388 434.25,-216.263 434.25,-216.263"/>
<polygon fill="black" stroke="black" points="437.75,-216.263 434.25,-206.263 430.75,-216.263 437.75,-216.263"/>
</g>
<!-- control output quality&#45;&gt;tei2 -->
<g id="edge45" class="edge"><title>control output quality&#45;&gt;tei2</title>
<path fill="none" stroke="black" d="M465.431,-185C465.431,-185 457.545,-185 457.545,-185"/>
<polygon fill="black" stroke="black" points="457.545,-181.5 447.545,-185 457.545,-188.5 457.545,-181.5"/>
</g>
<!-- pub -->
<g id="node38" class="node"><title>pub</title>
<path fill="none" stroke="black" d="M770.5,-116C770.5,-116 671.5,-116 671.5,-116 665.5,-116 659.5,-110 659.5,-104 659.5,-104 659.5,-92 659.5,-92 659.5,-86 665.5,-80 671.5,-80 671.5,-80 770.5,-80 770.5,-80 776.5,-80 782.5,-86 782.5,-92 782.5,-92 782.5,-104 782.5,-104 782.5,-110 776.5,-116 770.5,-116"/>
<text text-anchor="middle" x="721" y="-94.3" font-family="Times New Roman,serif" font-size="14.00">publish and deploy</text>
</g>
<!-- iflicence&#45;&gt;pub -->
<g id="edge49" class="edge"><title>iflicence&#45;&gt;pub</title>
<path fill="none" stroke="black" d="M596.277,-98C596.277,-98 649.408,-98 649.408,-98"/>
<polygon fill="black" stroke="black" points="649.408,-101.5 659.408,-98 649.408,-94.5001 649.408,-101.5"/>
</g>
<!-- dolicence -->
<g id="node39" class="node"><title>dolicence</title>
<path fill="none" stroke="black" d="M586,-40C586,-40 494,-40 494,-40 488,-40 482,-34 482,-28 482,-28 482,-16 482,-16 482,-10 488,-4 494,-4 494,-4 586,-4 586,-4 592,-4 598,-10 598,-16 598,-16 598,-28 598,-28 598,-34 592,-40 586,-40"/>
<text text-anchor="middle" x="540" y="-18.3" font-family="Times New Roman,serif" font-size="14.00">push for licencing</text>
</g>
<!-- iflicence&#45;&gt;dolicence -->
<g id="edge50" class="edge"><title>iflicence&#45;&gt;dolicence</title>
<path fill="none" stroke="black" d="M521.31,-85.7893C521.31,-85.7893 521.31,-50.136 521.31,-50.136"/>
<polygon fill="black" stroke="black" points="524.811,-50.136 521.31,-40.136 517.811,-50.136 524.811,-50.136"/>
</g>
<!-- pub&#45;&gt;end -->
<g id="edge52" class="edge"><title>pub&#45;&gt;end</title>
<path fill="none" stroke="black" d="M680.25,-79.9891C680.25,-79.9891 680.25,-54.2282 680.25,-54.2282"/>
<polygon fill="black" stroke="black" points="683.75,-54.2282 680.25,-44.2282 676.75,-54.2282 683.75,-54.2282"/>
</g>
<!-- dolicence&#45;&gt;iflicence -->
<g id="edge51" class="edge"><title>dolicence&#45;&gt;iflicence</title>
<path fill="none" stroke="black" d="M558.69,-40.0109C558.69,-40.0109 558.69,-75.5777 558.69,-75.5777"/>
<polygon fill="black" stroke="black" points="555.19,-75.5777 558.69,-85.5777 562.19,-75.5778 555.19,-75.5777"/>
</g>
</g>
</svg>
