<?xml version="1.0" encoding="UTF-8" standalone="no"?>
<!DOCTYPE svg PUBLIC "-//W3C//DTD SVG 1.1//EN"
 "http://www.w3.org/Graphics/SVG/1.1/DTD/svg11.dtd">
<!-- Generated by graphviz version 2.38.0 (20140413.2041)
 -->
<!-- Title: mrpdeploy Pages: 1 -->
<svg width="881pt" height="998pt"
 viewBox="0.00 0.00 881.00 998.00" xmlns="http://www.w3.org/2000/svg" xmlns:xlink="http://www.w3.org/1999/xlink">
<g id="graph0" class="graph" transform="scale(1 1) rotate(0) translate(4 994)">
<title>mrpdeploy</title>
<polygon fill="white" stroke="none" points="-4,4 -4,-994 877,-994 877,4 -4,4"/>
<g id="clust1" class="cluster"><title>cluster_verlag</title>
<polygon fill="none" stroke="black" points="212.843,-416.407 212.843,-537.407 384.843,-537.407 384.843,-416.407 212.843,-416.407"/>
<text text-anchor="middle" x="298.843" y="-517.407" font-family="Times New Roman,serif" font-size="20.00">«device»</text>
<text text-anchor="middle" x="298.843" y="-495.407" font-family="Times New Roman,serif" font-size="20.00">:hw.oeaw.ac.at</text>
</g>
<g id="clust3" class="cluster"><title>cluster_webapp</title>
<polygon fill="none" stroke="black" points="590.699,-817.178 590.699,-990.178 872.699,-990.178 872.699,-817.178 590.699,-817.178"/>
<text text-anchor="middle" x="731.699" y="-970.178" font-family="Times New Roman,serif" font-size="20.00">«device»</text>
<text text-anchor="middle" x="731.699" y="-948.178" font-family="Times New Roman,serif" font-size="20.00">:mrptestapp.acdh&#45;dev.oeaw.ac.at</text>
</g>
<g id="clust2" class="cluster"><title>cluster_arche</title>
<polygon fill="none" stroke="black" points="138.784,-187.275 138.784,-401.275 625.784,-401.275 625.784,-187.275 138.784,-187.275"/>
<text text-anchor="middle" x="382.284" y="-381.275" font-family="Times New Roman,serif" font-size="20.00">«device»</text>
<text text-anchor="middle" x="382.284" y="-359.275" font-family="Times New Roman,serif" font-size="20.00">:arche.acdh.oeaw.ac.at</text>
</g>
<g id="clust4" class="cluster"><title>cluster_datacuration</title>
<polygon fill="none" stroke="black" points="397.581,-411.473 397.581,-700.473 615.581,-700.473 615.581,-411.473 397.581,-411.473"/>
<text text-anchor="middle" x="506.581" y="-680.473" font-family="Times New Roman,serif" font-size="20.00">«device»</text>
<text text-anchor="middle" x="506.581" y="-658.473" font-family="Times New Roman,serif" font-size="20.00">:local machines</text>
</g>
<g id="clust5" class="cluster"><title>cluster_datacur</title>
<polygon fill="none" stroke="black" points="415.302,-429.295 415.302,-593.295 545.302,-593.295 545.302,-429.295 415.302,-429.295"/>
<text text-anchor="middle" x="480.302" y="-573.295" font-family="Times New Roman,serif" font-size="20.00">data curation</text>
</g>
<g id="clust8" class="cluster"><title>cluster_apisinstance</title>
<polygon fill="none" stroke="black" points="371.571,-740.007 371.571,-886.007 560.571,-886.007 560.571,-740.007 371.571,-740.007"/>
<text text-anchor="middle" x="466.071" y="-866.007" font-family="Times New Roman,serif" font-size="20.00">«device»</text>
<text text-anchor="middle" x="466.071" y="-844.007" font-family="Times New Roman,serif" font-size="20.00">:mpr.acdh.oeaw.ac.at</text>
</g>
<g id="clust6" class="cluster"><title>cluster_transkribus</title>
<polygon fill="none" stroke="black" points="628.01,-607.817 628.01,-711.817 763.01,-711.817 763.01,-607.817 628.01,-607.817"/>
<text text-anchor="middle" x="695.51" y="-691.817" font-family="Times New Roman,serif" font-size="20.00">«device»</text>
<text text-anchor="middle" x="695.51" y="-669.817" font-family="Times New Roman,serif" font-size="20.00">:transkribus.eu</text>
</g>
<g id="clust7" class="cluster"><title>cluster_biblio</title>
<polygon fill="none" stroke="black" points="626.941,-436.956 626.941,-540.956 777.941,-540.956 777.941,-436.956 626.941,-436.956"/>
<text text-anchor="middle" x="702.441" y="-520.956" font-family="Times New Roman,serif" font-size="20.00">«device»</text>
<text text-anchor="middle" x="702.441" y="-498.956" font-family="Times New Roman,serif" font-size="20.00">:zotero.org</text>
</g>
<g id="clust9" class="cluster"><title>cluster_versioning</title>
<polygon fill="none" stroke="black" points="656.042,-225.561 656.042,-331.561 862.042,-331.561 862.042,-225.561 656.042,-225.561"/>
<text text-anchor="middle" x="759.042" y="-311.561" font-family="Times New Roman,serif" font-size="20.00">«device»</text>
<text text-anchor="middle" x="759.042" y="-289.561" font-family="Times New Roman,serif" font-size="20.00">:gitlab.com/acdh&#45;oeaw/</text>
</g>
<g id="clust10" class="cluster"><title>cluster_external</title>
<polygon fill="none" stroke="black" points="146.503,-565.974 146.503,-726.974 388.503,-726.974 388.503,-565.974 146.503,-565.974"/>
<text text-anchor="middle" x="267.503" y="-706.974" font-family="Times New Roman,serif" font-size="20.00">«device»</text>
<text text-anchor="middle" x="267.503" y="-684.974" font-family="Times New Roman,serif" font-size="20.00">:various external</text>
</g>
<g id="clust11" class="cluster"><title>cluster_print</title>
<polygon fill="none" stroke="black" points="-0.379692,-0.334344 -0.379692,-104.334 108.62,-104.334 108.62,-0.334344 -0.379692,-0.334344"/>
<text text-anchor="middle" x="54.1203" y="-84.3343" font-family="Times New Roman,serif" font-size="20.00">«device»</text>
<text text-anchor="middle" x="54.1203" y="-62.3343" font-family="Times New Roman,serif" font-size="20.00">:paper</text>
</g>
<!-- xml -->
<g id="node1" class="node"><title>xml</title>
<polygon fill="none" stroke="black" points="376.626,-477.805 224.626,-477.805 220.626,-473.805 220.626,-424.805 372.626,-424.805 376.626,-428.805 376.626,-477.805"/>
<polyline fill="none" stroke="black" points="372.626,-473.805 220.626,-473.805 "/>
<polyline fill="none" stroke="black" points="372.626,-473.805 372.626,-424.805 "/>
<polyline fill="none" stroke="black" points="372.626,-473.805 376.626,-477.805 "/>
<text text-anchor="middle" x="298.626" y="-462.605" font-family="Times New Roman,serif" font-size="14.00">serves generic XML data</text>
<text text-anchor="middle" x="298.626" y="-447.605" font-family="Times New Roman,serif" font-size="14.00">from retro&#45;digitization</text>
<text text-anchor="middle" x="298.626" y="-432.605" font-family="Times New Roman,serif" font-size="14.00"> using XSL</text>
</g>
<!-- __0:cluster_datacur -->
<!-- xml&#45;&#45;__0:cluster_datacur -->
<g id="edge15" class="edge"><title>xml&#45;&#45;__0:cluster_datacur</title>
<path fill="none" stroke="black" d="M376.727,-477.095C389.518,-481.318 402.653,-485.655 415.089,-489.762"/>
</g>
<!-- arche -->
<g id="node3" class="node"><title>arche</title>
<polygon fill="none" stroke="black" points="617.664,-263.306 389.664,-263.306 385.664,-259.306 385.664,-195.306 613.664,-195.306 617.664,-199.306 617.664,-263.306"/>
<polyline fill="none" stroke="black" points="613.664,-259.306 385.664,-259.306 "/>
<polyline fill="none" stroke="black" points="613.664,-259.306 613.664,-195.306 "/>
<polyline fill="none" stroke="black" points="613.664,-259.306 617.664,-263.306 "/>
<text text-anchor="middle" x="501.664" y="-248.106" font-family="Times New Roman,serif" font-size="14.00">Fedora Commons 4</text>
<text text-anchor="middle" x="501.664" y="-233.106" font-family="Times New Roman,serif" font-size="14.00">A Resource Centre for the HumanitiEs</text>
<text text-anchor="middle" x="501.664" y="-218.106" font-family="Times New Roman,serif" font-size="14.00">OeAW long&#45;term</text>
<text text-anchor="middle" x="501.664" y="-203.106" font-family="Times New Roman,serif" font-size="14.00">research data repository</text>
</g>
<!-- dissemination -->
<g id="node4" class="node"><title>dissemination</title>
<polygon fill="none" stroke="black" points="396.881,-341.119 150.881,-341.119 146.881,-337.119 146.881,-273.119 392.881,-273.119 396.881,-277.119 396.881,-341.119"/>
<polyline fill="none" stroke="black" points="392.881,-337.119 146.881,-337.119 "/>
<polyline fill="none" stroke="black" points="392.881,-337.119 392.881,-273.119 "/>
<polyline fill="none" stroke="black" points="392.881,-337.119 396.881,-341.119 "/>
<text text-anchor="middle" x="271.881" y="-325.919" font-family="Times New Roman,serif" font-size="14.00">dissemination services</text>
<text text-anchor="middle" x="271.881" y="-310.919" font-family="Times New Roman,serif" font-size="14.00">TEI to [html, txt, docx, pdf, RDF, ttl, …]</text>
<text text-anchor="middle" x="271.881" y="-295.919" font-family="Times New Roman,serif" font-size="14.00">IIIF for images</text>
<text text-anchor="middle" x="271.881" y="-280.919" font-family="Times New Roman,serif" font-size="14.00">sustainable</text>
</g>
<!-- arche&#45;&#45;dissemination -->
<g id="edge2" class="edge"><title>arche&#45;&#45;dissemination</title>
<path fill="none" stroke="black" d="M401.212,-263.323C391.672,-266.553 381.996,-269.83 372.455,-273.061"/>
</g>
<!-- exist -->
<g id="node5" class="node"><title>exist</title>
<polygon fill="none" stroke="black" points="813.462,-929.889 740.462,-929.889 736.462,-925.889 736.462,-891.889 809.462,-891.889 813.462,-895.889 813.462,-929.889"/>
<polyline fill="none" stroke="black" points="809.462,-925.889 736.462,-925.889 "/>
<polyline fill="none" stroke="black" points="809.462,-925.889 809.462,-891.889 "/>
<polyline fill="none" stroke="black" points="809.462,-925.889 813.462,-929.889 "/>
<text text-anchor="middle" x="774.962" y="-914.689" font-family="Times New Roman,serif" font-size="14.00">eXist&#45;db</text>
<text text-anchor="middle" x="774.962" y="-899.689" font-family="Times New Roman,serif" font-size="14.00">serves TEI</text>
</g>
<!-- fancystuff -->
<g id="node6" class="node"><title>fancystuff</title>
<polygon fill="none" stroke="black" points="799.835,-878.599 653.835,-878.599 649.835,-874.599 649.835,-825.599 795.835,-825.599 799.835,-829.599 799.835,-878.599"/>
<polyline fill="none" stroke="black" points="795.835,-874.599 649.835,-874.599 "/>
<polyline fill="none" stroke="black" points="795.835,-874.599 795.835,-825.599 "/>
<polyline fill="none" stroke="black" points="795.835,-874.599 799.835,-878.599 "/>
<text text-anchor="middle" x="724.835" y="-863.399" font-family="Times New Roman,serif" font-size="14.00">REST API, network viz</text>
<text text-anchor="middle" x="724.835" y="-848.399" font-family="Times New Roman,serif" font-size="14.00">calendar views</text>
<text text-anchor="middle" x="724.835" y="-833.399" font-family="Times New Roman,serif" font-size="14.00">curation intense</text>
</g>
<!-- exist&#45;&#45;fancystuff -->
<g id="edge3" class="edge"><title>exist&#45;&#45;fancystuff</title>
<path fill="none" stroke="black" d="M758.549,-891.639C755.008,-887.486 751.205,-883.026 747.474,-878.651"/>
</g>
<!-- MS Word\n.docx -->
<g id="node7" class="node"><title>MS Word\n.docx</title>
<polygon fill="none" stroke="black" points="497.083,-491.01 427.083,-491.01 423.083,-487.01 423.083,-437.01 493.083,-437.01 497.083,-441.01 497.083,-491.01"/>
<polyline fill="none" stroke="black" points="493.083,-487.01 423.083,-487.01 "/>
<polyline fill="none" stroke="black" points="493.083,-487.01 493.083,-437.01 "/>
<polyline fill="none" stroke="black" points="493.083,-487.01 497.083,-491.01 "/>
<text text-anchor="middle" x="460.083" y="-467.81" font-family="Times New Roman,serif" font-size="14.00">MS Word</text>
<text text-anchor="middle" x="460.083" y="-452.81" font-family="Times New Roman,serif" font-size="14.00">.docx</text>
</g>
<!-- TEI\n.xml -->
<g id="node8" class="node"><title>TEI\n.xml</title>
<polygon fill="gray" stroke="gray" points="531.119,-554.88 483.119,-554.88 483.119,-500.88 537.119,-500.88 537.119,-548.88 531.119,-554.88"/>
<polyline fill="none" stroke="gray" points="531.119,-554.88 531.119,-548.88 "/>
<polyline fill="none" stroke="gray" points="537.119,-548.88 531.119,-548.88 "/>
<text text-anchor="middle" x="510.119" y="-531.68" font-family="Times New Roman,serif" font-size="14.00">TEI</text>
<text text-anchor="middle" x="510.119" y="-516.68" font-family="Times New Roman,serif" font-size="14.00">.xml</text>
</g>
<!-- MS Word\n.docx&#45;&#45;TEI\n.xml -->
<g id="edge4" class="edge"><title>MS Word\n.docx&#45;&#45;TEI\n.xml</title>
<path fill="none" stroke="black" d="M481.303,-491.096C481.686,-491.585 482.07,-492.076 482.455,-492.567"/>
<polygon fill="black" stroke="black" points="479.784,-494.834 488.706,-500.547 485.295,-490.517 479.784,-494.834"/>
</g>
<!-- transkribus -->
<g id="node9" class="node"><title>transkribus</title>
<polygon fill="none" stroke="black" points="754.638,-651.374 639.638,-651.374 635.638,-647.374 635.638,-615.374 750.638,-615.374 754.638,-619.374 754.638,-651.374"/>
<polyline fill="none" stroke="black" points="750.638,-647.374 635.638,-647.374 "/>
<polyline fill="none" stroke="black" points="750.638,-647.374 750.638,-615.374 "/>
<polyline fill="none" stroke="black" points="750.638,-647.374 754.638,-651.374 "/>
<text text-anchor="middle" x="695.138" y="-629.674" font-family="Times New Roman,serif" font-size="14.00">HTR transcription</text>
</g>
<!-- __3:cluster_datacur -->
<!-- transkribus&#45;&#45;__3:cluster_datacur -->
<g id="edge18" class="edge"><title>transkribus&#45;&#45;__3:cluster_datacur</title>
<path fill="none" stroke="black" d="M663.438,-615.361C632.508,-597.785 584.535,-570.525 545.448,-548.314"/>
</g>
<!-- zotero -->
<g id="node10" class="node"><title>zotero</title>
<polygon fill="none" stroke="black" points="769.858,-481.155 638.858,-481.155 634.858,-477.155 634.858,-445.155 765.858,-445.155 769.858,-449.155 769.858,-481.155"/>
<polyline fill="none" stroke="black" points="765.858,-477.155 634.858,-477.155 "/>
<polyline fill="none" stroke="black" points="765.858,-477.155 765.858,-445.155 "/>
<polyline fill="none" stroke="black" points="765.858,-477.155 769.858,-481.155 "/>
<text text-anchor="middle" x="702.358" y="-459.455" font-family="Times New Roman,serif" font-size="14.00">bibliography curation</text>
</g>
<!-- __4:cluster_datacur -->
<!-- zotero&#45;&#45;__4:cluster_datacur -->
<g id="edge19" class="edge"><title>zotero&#45;&#45;__4:cluster_datacur</title>
<path fill="none" stroke="black" d="M634.829,-477.794C606.503,-483.936 573.689,-491.05 545.604,-497.138"/>
</g>
<!-- mpr -->
<g id="node11" class="node"><title>mpr</title>
<polygon fill="none" stroke="black" points="515.276,-801.158 420.276,-801.158 416.276,-797.158 416.276,-748.158 511.276,-748.158 515.276,-752.158 515.276,-801.158"/>
<polyline fill="none" stroke="black" points="511.276,-797.158 416.276,-797.158 "/>
<polyline fill="none" stroke="black" points="511.276,-797.158 511.276,-748.158 "/>
<polyline fill="none" stroke="black" points="511.276,-797.158 515.276,-801.158 "/>
<text text-anchor="middle" x="465.776" y="-785.958" font-family="Times New Roman,serif" font-size="14.00">django&#45;based</text>
<text text-anchor="middle" x="465.776" y="-770.958" font-family="Times New Roman,serif" font-size="14.00">APIS</text>
<text text-anchor="middle" x="465.776" y="-755.958" font-family="Times New Roman,serif" font-size="14.00">entity database</text>
</g>
<!-- mpr&#45;&#45;fancystuff -->
<g id="edge13" class="edge"><title>mpr&#45;&#45;fancystuff</title>
<path fill="none" stroke="black" stroke-dasharray="1,5" d="M515.419,-789.498C553.397,-800.851 606.408,-816.698 649.591,-829.606"/>
<text text-anchor="middle" x="552.505" y="-813.352" font-family="Times New Roman,serif" font-size="14.00">ids aligned</text>
</g>
<!-- __5:cluster_datacur -->
<!-- mpr&#45;&#45;__5:cluster_datacur -->
<g id="edge20" class="edge"><title>mpr&#45;&#45;__5:cluster_datacur</title>
<path fill="none" stroke="black" d="M467.249,-747.957C469.232,-711.995 472.851,-646.39 475.776,-593.36"/>
</g>
<!-- __6:cluster_external -->
<!-- mpr&#45;&#45;__6:cluster_external -->
<g id="edge21" class="edge"><title>mpr&#45;&#45;__6:cluster_external</title>
<path fill="none" stroke="black" stroke-dasharray="1,5" d="M424.694,-748.099C413.805,-741.059 401.473,-733.086 388.622,-724.778"/>
<text text-anchor="middle" x="376.658" y="-740.238" font-family="Times New Roman,serif" font-size="14.00">ids aligned</text>
</g>
<!-- gitlab -->
<g id="node12" class="node"><title>gitlab</title>
<polygon fill="none" stroke="black" points="852.686,-271.332 668.686,-271.332 664.686,-267.332 664.686,-233.332 848.686,-233.332 852.686,-237.332 852.686,-271.332"/>
<polyline fill="none" stroke="black" points="848.686,-267.332 664.686,-267.332 "/>
<polyline fill="none" stroke="black" points="848.686,-267.332 848.686,-233.332 "/>
<polyline fill="none" stroke="black" points="848.686,-267.332 852.686,-271.332 "/>
<text text-anchor="middle" x="758.686" y="-256.132" font-family="Times New Roman,serif" font-size="14.00">git for versioning/collaboration</text>
<text text-anchor="middle" x="758.686" y="-241.132" font-family="Times New Roman,serif" font-size="14.00">data and application</text>
</g>
<!-- __7:cluster_datacur -->
<!-- gitlab&#45;&#45;__7:cluster_datacur -->
<g id="edge22" class="edge"><title>gitlab&#45;&#45;__7:cluster_datacur</title>
<path fill="none" stroke="black" d="M738.215,-271.375C698.16,-308.635 607.899,-392.6 545.542,-450.607"/>
</g>
<!-- links -->
<g id="node13" class="node"><title>links</title>
<polygon fill="none" stroke="black" points="154.637,-574.079 154.637,-666.079 380.637,-666.079 380.637,-574.079 154.637,-574.079"/>
<text text-anchor="middle" x="267.637" y="-650.879" font-family="Times New Roman,serif" font-size="14.00">anno.onb.ac.at for newspaper articles</text>
<polyline fill="none" stroke="black" points="154.637,-643.079 380.637,-643.079 "/>
<text text-anchor="middle" x="267.637" y="-627.879" font-family="Times New Roman,serif" font-size="14.00">authority files (GND/GeoNames)</text>
<polyline fill="none" stroke="black" points="154.637,-620.079 380.637,-620.079 "/>
<text text-anchor="middle" x="267.637" y="-604.879" font-family="Times New Roman,serif" font-size="14.00">&#39;Linked Open Data cloud’</text>
<polyline fill="none" stroke="black" points="154.637,-597.079 380.637,-597.079 "/>
<text text-anchor="middle" x="267.637" y="-581.879" font-family="Times New Roman,serif" font-size="14.00">...</text>
</g>
<!-- __8:cluster_datacur -->
<!-- links&#45;&#45;__8:cluster_datacur -->
<g id="edge23" class="edge"><title>links&#45;&#45;__8:cluster_datacur</title>
<path fill="none" stroke="black" d="M357.826,-573.945C377.071,-564.1 397.039,-553.887 415.127,-544.634"/>
</g>
<!-- print -->
<g id="node14" class="node"><title>print</title>
<polygon fill="none" stroke="black" points="100.164,-44.4011 11.164,-44.4011 7.16404,-40.4011 7.16404,-8.40111 96.164,-8.40111 100.164,-12.4011 100.164,-44.4011"/>
<polyline fill="none" stroke="black" points="96.164,-40.4011 7.16404,-40.4011 "/>
<polyline fill="none" stroke="black" points="96.164,-40.4011 96.164,-8.40111 "/>
<polyline fill="none" stroke="black" points="96.164,-40.4011 100.164,-44.4011 "/>
<text text-anchor="middle" x="53.664" y="-22.7011" font-family="Times New Roman,serif" font-size="14.00">book derivate</text>
</g>
<!-- print&#45;&#45;arche -->
<g id="edge12" class="edge"><title>print&#45;&#45;arche</title>
<path fill="none" stroke="black" d="M93.421,-44.4076C168.051,-78.2083 330.225,-151.659 426.191,-195.123"/>
</g>
<!-- __1:cluster_datacur -->
<!-- __1:cluster_datacur&#45;&#45;arche -->
<g id="edge16" class="edge"><title>__1:cluster_datacur&#45;&#45;arche</title>
<path fill="none" stroke="black" d="M486.538,-428.974C490.713,-373.865 495.99,-304.2 499.08,-263.414"/>
</g>
<!-- __2:cluster_datacur -->
<!-- __2:cluster_datacur&#45;&#45;exist -->
<g id="edge17" class="edge"><title>__2:cluster_datacur&#45;&#45;exist</title>
<path fill="none" stroke="black" d="M540.998,-593.607C611.083,-688.65 721.733,-838.704 760.763,-891.632"/>
</g>
</g>
</svg>
